<svg width="21" height="21" viewBox="0 0 21 21" fill="none" xmlns="http://www.w3.org/2000/svg">
<path d="M10.5 0.719297C5.10694 0.719297 0.719662 5.10698 0.719662 10.5C0.719662 15.8927 5.10694 20.2808 10.5 20.2808C15.8927 20.2808 20.28 15.8927 20.28 10.5C20.28 5.10698 15.8927 0.719297 10.5 0.719297ZM10.5 21C4.71026 21 0 16.2898 0 10.5C0 4.7103 4.71026 3.62396e-05 10.5 3.62396e-05C16.2897 3.62396e-05 21 4.7103 21 10.5C21 16.2898 16.2897 21 10.5 21Z" fill="#00AEA5"/>
<path d="M2.98987 17.1093C2.81828 17.1093 2.64947 17.1037 2.48145 17.093L2.529 16.3746C5.75675 16.5845 9.8377 14.5591 12.4461 11.4436C14.8642 8.55458 15.7265 5.06334 14.8733 1.61288L15.572 1.44049C16.4818 5.11961 15.5676 8.83598 12.9981 11.9057C10.3854 15.0267 6.34364 17.1093 2.98987 17.1093Z" fill="#00AEA5"/>
<path d="M15.8986 19.4097L15.2229 19.1621C16.3083 16.1986 15.6719 13.0501 13.4305 10.2963C10.5971 6.81456 5.91255 4.78399 2.03569 5.35543L1.93066 4.64371C6.04451 4.03778 11.0032 6.17377 13.9889 9.84223C16.3967 12.8004 17.0751 16.1986 15.8986 19.4097Z" fill="#00AEA5"/>
<path d="M7.97176 20.6334C3.94271 16.5057 3.39267 12.3317 3.64074 9.55647C4.04892 4.99204 6.69293 1.59151 8.83327 0.0666008L9.25057 0.652708C7.23506 2.08885 4.744 5.29996 4.35762 9.62071C4.12302 12.2449 4.6489 16.1991 8.48693 20.1305L7.97176 20.6334Z" fill="#00AEA5"/>
<path d="M10.1309 17.6725C5.8998 17.6725 2.29241 15.8915 0.260254 12.7227L0.866177 12.3345C3.03941 15.723 7.1699 17.4088 11.9138 16.8454C15.9508 16.365 19.3478 14.3627 20.1748 11.9758L20.8549 12.2111C19.9406 14.8492 16.2992 17.0483 11.9987 17.5594C11.365 17.6351 10.7412 17.6725 10.1309 17.6725Z" fill="#00AEA5"/>
<path fill-rule="evenodd" clip-rule="evenodd" d="M15.5395 10.3708C15.5395 11.2787 14.8033 12.0146 13.8954 12.0146C12.9875 12.0146 12.252 11.2787 12.252 10.3708C12.252 9.46283 12.9875 8.72693 13.8954 8.72693C14.8033 8.72693 15.5395 9.46283 15.5395 10.3708Z" fill="#00AEA5"/>
<path fill-rule="evenodd" clip-rule="evenodd" d="M6.93965 5.15286C6.93965 6.05758 6.20612 6.7915 5.301 6.7915C4.39588 6.7915 3.66235 6.05758 3.66235 5.15286C3.66235 4.24774 4.39588 3.51382 5.301 3.51382C6.20612 3.51382 6.93965 4.24774 6.93965 5.15286Z" fill="#00AEA5"/>
<path fill-rule="evenodd" clip-rule="evenodd" d="M6.85569 16.4459C6.85569 17.3043 6.15942 18.0001 5.30106 18.0001C4.4427 18.0001 3.74683 17.3043 3.74683 16.4459C3.74683 15.5876 4.4427 14.8913 5.30106 14.8913C6.15942 14.8913 6.85569 15.5876 6.85569 16.4459Z" fill="#00AEA5"/>
<path fill-rule="evenodd" clip-rule="evenodd" d="M17.7187 16.086C17.7187 16.9797 16.9939 17.7037 16.101 17.7037C15.2074 17.7037 14.4834 16.9797 14.4834 16.086C14.4834 15.1924 15.2074 14.4684 16.101 14.4684C16.9939 14.4684 17.7187 15.1924 17.7187 16.086Z" fill="#00AEA5"/>
</svg>
