<svg width="179" height="71" viewBox="0 0 179 71" fill="none" xmlns="http://www.w3.org/2000/svg">
<path d="M84.9504 27.4035C84.73 26.8837 84.4153 26.4105 84.0225 26.0084C83.6241 25.6068 83.1524 25.2874 82.6338 25.068C82.1118 24.8395 81.5495 24.7208 80.9809 24.7192H72.9559V39.7102H80.9809C81.5537 39.7112 82.1206 39.5925 82.6461 39.3614C83.6841 38.9155 84.5104 38.078 84.9504 37.0259C85.1764 36.4929 85.2914 35.9183 85.2883 35.3381C85.2981 34.7556 85.1872 34.1775 84.9628 33.6411C84.7384 33.1047 84.4055 32.622 83.9856 32.2241C84.6064 31.6123 85.0307 30.8249 85.2028 29.9649C85.3749 29.1048 85.2869 28.2121 84.9504 27.4035ZM82.6768 36.0792C82.588 36.3113 82.4543 36.5231 82.2836 36.702C82.1078 36.8762 81.8987 37.0118 81.6691 37.1006C81.4471 37.1942 81.2091 37.2429 80.9686 37.2439H75.3954V33.507H80.9686C81.2264 33.4932 81.4842 33.5356 81.7244 33.6316C81.9427 33.7303 82.1407 33.8697 82.3081 34.0427C82.476 34.2227 82.6075 34.4343 82.6953 34.6655C82.8813 35.1222 82.8813 35.635 82.6953 36.0917L82.6768 36.0792ZM82.6768 29.8512C82.588 30.0833 82.4543 30.295 82.2836 30.474C82.1068 30.6498 81.8981 30.7894 81.6691 30.885C81.4486 30.9852 81.2102 31.0382 80.9686 31.0407H75.3954V27.3039H80.9686C81.2091 27.3049 81.4471 27.3535 81.6691 27.4471C81.8987 27.5359 82.1078 27.6716 82.2836 27.8457C82.6271 28.1968 82.8194 28.6716 82.8182 29.1661C82.8069 29.3844 82.7591 29.5992 82.6768 29.8013V29.8512Z" fill="#445860"/>
<path d="M95.126 24.6943C94.1509 24.6757 93.1825 24.8626 92.2824 25.2432C91.3822 25.6238 90.5699 26.1898 89.8969 26.9052C89.2095 27.5996 88.664 28.4246 88.2919 29.3331C87.9197 30.2415 87.7281 31.2155 87.7281 32.1991C87.7281 33.1827 87.9197 34.1567 88.2919 35.0652C88.664 35.9736 89.2095 36.7986 89.8969 37.493C90.9348 38.5372 92.2539 39.2474 93.6887 39.5345C95.1234 39.8215 96.6098 39.6726 97.9614 39.1064C99.3129 38.5402 100.469 37.582 101.285 36.352C102.102 35.1221 102.541 33.6751 102.549 32.1929C102.533 30.2037 101.745 28.3008 100.356 26.8954C98.9673 25.49 97.0886 24.6948 95.126 24.6818V24.6943ZM98.6039 35.7491C98.1509 36.2165 97.6092 36.586 97.0115 36.8354C96.4137 37.0848 95.7724 37.2089 95.126 37.2002C93.8223 37.2002 92.5719 36.6753 91.6501 35.7409C90.7282 34.8065 90.2103 33.5392 90.2103 32.2178C90.217 31.4015 90.4215 30.5993 90.8058 29.8819C91.1902 29.1644 91.7425 28.5537 92.4144 28.1034C93.0862 27.6531 93.8569 27.3771 94.6587 27.2995C95.4605 27.2219 96.2688 27.3452 97.0125 27.6585C97.7563 27.9718 98.4127 28.4656 98.924 29.0963C99.4353 29.7271 99.7859 30.4755 99.9449 31.2758C100.104 32.0761 100.066 32.9038 99.8358 33.6859C99.6052 34.4681 99.1885 35.1809 98.6223 35.7616L98.6039 35.7491Z" fill="#445860"/>
<path d="M111.969 24.6943C110.994 24.6757 110.025 24.8626 109.125 25.2432C108.225 25.6238 107.413 26.1898 106.74 26.9052C106.052 27.5996 105.507 28.4246 105.135 29.3331C104.762 30.2415 104.571 31.2155 104.571 32.1991C104.571 33.1827 104.762 34.1567 105.135 35.0652C105.507 35.9736 106.052 36.7986 106.74 37.493C107.779 38.5342 109.097 39.2418 110.531 39.5272C111.965 39.8125 113.45 39.663 114.8 39.0973C116.151 38.5316 117.306 37.5749 118.123 36.3468C118.94 35.1187 119.381 33.6738 119.391 32.1929C119.374 30.2042 118.586 28.3023 117.197 26.8972C115.809 25.4921 113.931 24.6965 111.969 24.6818V24.6943ZM115.447 35.7491C114.993 36.2159 114.451 36.585 113.854 36.8344C113.256 37.0838 112.615 37.2082 111.969 37.2002C110.665 37.2002 109.415 36.6753 108.493 35.7409C107.571 34.8065 107.053 33.5392 107.053 32.2178C107.06 31.4015 107.264 30.5993 107.648 29.8819C108.033 29.1644 108.585 28.5537 109.257 28.1034C109.929 27.6531 110.7 27.3771 111.501 27.2995C112.303 27.2219 113.111 27.3452 113.855 27.6585C114.599 27.9718 115.255 28.4656 115.767 29.0963C116.278 29.7271 116.629 30.4755 116.788 31.2758C116.947 32.0761 116.909 32.9038 116.678 33.6859C116.448 34.4681 116.031 35.1809 115.465 35.7616L115.447 35.7491Z" fill="#445860"/>
<path d="M126.273 24.6943C125.136 24.7056 124.049 25.1686 123.244 25.9837C122.44 26.7989 121.983 27.9012 121.972 29.0539C121.972 30.2102 122.425 31.3191 123.232 32.1367C124.039 32.9543 125.133 33.4136 126.273 33.4136H129.96C130.204 33.4084 130.446 33.4557 130.671 33.5524C130.895 33.649 131.097 33.7927 131.263 33.9741C131.441 34.1435 131.582 34.3481 131.678 34.5753C131.774 34.8024 131.823 35.0472 131.822 35.2944C131.823 35.5464 131.775 35.7961 131.681 36.0294C131.596 36.2636 131.462 36.4762 131.288 36.6522C131.11 36.8207 130.901 36.952 130.673 37.0383C130.441 37.1336 130.192 37.1822 129.942 37.1816H121.954V39.6728H129.942C131.083 39.6728 132.177 39.2135 132.983 38.3959C133.79 37.5783 134.243 36.4694 134.243 35.3131C134.243 34.1569 133.79 33.048 132.983 32.2304C132.177 31.4128 131.083 30.9535 129.942 30.9535H126.255C126.007 30.9594 125.76 30.9119 125.531 30.8142C125.303 30.7166 125.097 30.5709 124.928 30.3867C124.755 30.2107 124.619 30.0016 124.528 29.7717C124.436 29.5418 124.39 29.2957 124.393 29.0477C124.392 28.5532 124.584 28.0784 124.928 27.7273C125.102 27.5518 125.312 27.4159 125.542 27.3287C125.772 27.2335 126.019 27.1848 126.267 27.1855H140.799V39.7102H143.257V27.2042H147.854L145.869 24.713L126.273 24.6943Z" fill="#445860"/>
<path d="M157.138 32.2053L162.92 24.7005H159.787L155.559 30.1687L147.577 20.4031H144.419L153.998 32.2053L148.198 39.7102H151.356L155.559 34.2357L167.031 46.8413H170.165L157.138 32.2053Z" fill="#445860"/>
<path d="M73.81 43.9142V46.8414H73.0112V41.9524L75.4261 44.3938L77.841 41.9524V46.8414H77.0299V43.9142L75.4261 45.5522L73.81 43.9142Z" fill="#445860"/>
<path d="M82.812 44.8046C82.8128 45.0753 82.7586 45.3432 82.6529 45.5918C82.5472 45.8404 82.3922 46.0642 82.1975 46.2495C81.82 46.6291 81.3098 46.8421 80.7781 46.8421C80.2464 46.8421 79.7362 46.6291 79.3587 46.2495C79.1698 46.0613 79.0207 45.8362 78.9204 45.5878C78.82 45.3394 78.7706 45.073 78.7749 44.8046V41.9521H79.5737V44.8046C79.5695 44.9693 79.5984 45.1332 79.6587 45.2863C79.7189 45.4394 79.8093 45.5784 79.9243 45.6949C80.0392 45.8114 80.1764 45.903 80.3274 45.9641C80.4784 46.0252 80.6401 46.0545 80.8027 46.0502C80.961 46.0528 81.1181 46.0221 81.2641 45.9599C81.4101 45.8977 81.5417 45.8055 81.6506 45.689C81.7658 45.5784 81.8573 45.4451 81.9197 45.2973C81.982 45.1495 82.0139 44.9903 82.0132 44.8295V41.9521H82.8181L82.812 44.8046Z" fill="#445860"/>
<path d="M83.7706 41.9524H84.5694V46.0256H86.9782V46.8414H83.7706V41.9524Z" fill="#445860"/>
<path d="M86.2532 41.9521H90.2779V42.768H88.6742V46.8412H87.8692V42.768H86.2532V41.9521Z" fill="#445860"/>
<path d="M91.2363 41.9524H92.0351V46.8414H91.2363V41.9524Z" fill="#445860"/>
<path d="M94.7941 44.0635V44.6863H92.5636V44.0635H94.7941Z" fill="#445860"/>
<path d="M97.7437 41.9523C98.0643 41.9492 98.3822 42.0128 98.6776 42.1391C98.9645 42.2645 99.2252 42.4441 99.4457 42.6685L98.8804 43.2477C98.7327 43.0941 98.5558 42.9724 98.3605 42.89C98.1651 42.8076 97.9553 42.7661 97.7437 42.7681C97.5327 42.7681 97.3239 42.8105 97.1292 42.8927C96.936 42.9732 96.7605 43.0917 96.6129 43.2413C96.4652 43.391 96.3483 43.5688 96.2689 43.7646C96.183 43.9607 96.1391 44.1729 96.1399 44.3874C96.1398 44.6019 96.1837 44.814 96.2689 45.0102C96.3523 45.202 96.4688 45.377 96.613 45.5272C96.7568 45.6786 96.9306 45.7975 97.123 45.8759C97.3169 45.9616 97.526 46.0061 97.7375 46.0067C97.9485 46.0081 98.1576 45.967 98.3528 45.8858C98.5479 45.8045 98.7252 45.6847 98.8743 45.5334L99.4396 46.1001C99.2206 46.3263 98.9595 46.5063 98.6715 46.6295C98.3773 46.7608 98.0589 46.8266 97.7375 46.8226C97.4165 46.823 97.0987 46.7573 96.8035 46.6295C96.5166 46.5042 96.2559 46.3245 96.0354 46.1001C95.8147 45.8785 95.6375 45.6164 95.5131 45.3279C95.3908 45.032 95.3278 44.7144 95.3278 44.3937C95.3278 44.0729 95.3908 43.7553 95.5131 43.4594C95.7617 42.8718 96.2237 42.4035 96.8035 42.1516C97.0992 42.0178 97.4198 41.9499 97.7437 41.9523Z" fill="#445860"/>
<path d="M100.404 41.9524H101.203V43.989H103.612V41.9524H104.423V46.8414H103.612V44.8048H101.203V46.8414H100.404V41.9524Z" fill="#445860"/>
<path d="M108.896 46.0256H106.684L106.303 46.8414H105.406L107.821 41.9524L110.23 46.8414H109.332L108.896 46.0256ZM107.053 45.2097H108.472L107.766 43.7772L107.053 45.2097Z" fill="#445860"/>
<path d="M111.151 41.9521H111.956V46.8412H111.151V41.9521Z" fill="#445860"/>
<path d="M112.909 41.946L116.122 44.8732V41.946H116.927V46.8413L113.708 43.9079V46.8351H112.909V41.946Z" fill="#445860"/>
<path d="M119.557 41.9524H120.356V46.0256H122.771V46.8414H119.557V41.9524Z" fill="#445860"/>
<path d="M127.25 46.0256H125.032L124.621 46.8414H123.723L126.138 41.9524L128.547 46.8414H127.65L127.25 46.0256ZM125.407 45.2097H126.826L126.12 43.7772L125.407 45.2097Z" fill="#445860"/>
<path d="M132.867 44.8049C132.867 45.0755 132.813 45.3435 132.708 45.592C132.602 45.8406 132.447 46.0645 132.252 46.2498C131.972 46.5353 131.614 46.7298 131.224 46.8085C130.834 46.8871 130.43 46.8464 130.063 46.6914C129.696 46.5365 129.382 46.2743 129.163 45.9384C128.943 45.6024 128.827 45.2078 128.83 44.8049V41.9524H129.653V44.8049C129.649 44.9644 129.678 45.123 129.737 45.2708C129.796 45.4187 129.885 45.5526 129.997 45.6643C130.108 45.7795 130.241 45.8708 130.388 45.9329C130.535 45.9949 130.692 46.0264 130.851 46.0256C131.177 46.0256 131.49 45.8943 131.72 45.6607C131.951 45.4271 132.08 45.1103 132.08 44.7799V41.9524H132.885L132.867 44.8049Z" fill="#445860"/>
<path d="M133.825 41.946L137.033 44.8732V41.946H137.838V46.8413L134.624 43.9079V46.8351H133.825V41.946Z" fill="#445860"/>
<path d="M141.211 41.9523C141.532 41.9492 141.85 42.0128 142.145 42.1391C142.431 42.2662 142.692 42.4456 142.913 42.6685L142.348 43.2477C142.161 43.056 141.931 42.9142 141.677 42.8347C141.423 42.7552 141.154 42.7406 140.894 42.7921C140.633 42.8437 140.389 42.9598 140.183 43.1302C139.977 43.3005 139.817 43.5198 139.715 43.7685C139.613 44.0172 139.574 44.2875 139.6 44.5554C139.626 44.8232 139.718 45.0804 139.866 45.3038C140.014 45.5273 140.214 45.7101 140.449 45.836C140.684 45.9619 140.946 46.027 141.211 46.0254C141.422 46.0268 141.631 45.9857 141.826 45.9044C142.022 45.8232 142.199 45.7034 142.348 45.5521L142.913 46.1188C142.693 46.3432 142.432 46.5228 142.145 46.6482C141.851 46.7795 141.533 46.8453 141.211 46.8413C140.89 46.8478 140.571 46.787 140.273 46.6627C139.976 46.5384 139.708 46.3532 139.485 46.1188C139.148 45.777 138.919 45.3416 138.826 44.8678C138.733 44.3939 138.782 43.9029 138.965 43.4568C139.147 43.0107 139.457 42.6297 139.853 42.3618C140.25 42.094 140.716 41.9515 141.193 41.9523H141.211Z" fill="#445860"/>
<path d="M143.872 41.9521H144.671V43.9887H147.079V41.9521H147.884V46.8412H147.079V44.8046H144.671V46.8412H143.872V41.9521Z" fill="#445860"/>
<path d="M149.642 45.2095V46.8413H148.843V41.9523H151.252C151.471 41.9385 151.691 41.9704 151.898 42.0461C152.104 42.1217 152.294 42.2394 152.454 42.392C152.614 42.5446 152.741 42.7288 152.829 42.9333C152.916 43.1377 152.961 43.3581 152.961 43.5809C152.961 43.8037 152.916 44.0241 152.829 44.2286C152.741 44.433 152.614 44.6172 152.454 44.7698C152.294 44.9224 152.104 45.0401 151.898 45.1158C151.691 45.1914 151.471 45.2233 151.252 45.2095H149.642ZM149.642 42.7681V44.3937H151.252C151.463 44.3937 151.667 44.3084 151.816 44.1565C151.966 44.0047 152.05 43.7988 152.05 43.584C152.053 43.4772 152.034 43.371 151.994 43.2723C151.954 43.1736 151.893 43.0845 151.817 43.011C151.744 42.9333 151.657 42.8716 151.559 42.8299C151.462 42.7881 151.357 42.7671 151.252 42.7681H149.642Z" fill="#445860"/>
<path d="M155.965 46.0256H153.746L153.335 46.8414H152.438L154.846 41.9524L157.255 46.8414H156.358L155.965 46.0256ZM154.121 45.2097H155.541L154.846 43.7772L154.121 45.2097Z" fill="#445860"/>
<path d="M158.22 41.9524H159.823C160.442 41.9841 161.025 42.2554 161.452 42.7104C161.879 43.1653 162.117 43.7691 162.117 44.3969C162.117 45.0247 161.879 45.6285 161.452 46.0834C161.025 46.5384 160.442 46.8098 159.823 46.8414H158.22V41.9524ZM159.823 46.0256C160.034 46.0279 160.242 45.9872 160.436 45.9058C160.631 45.8245 160.807 45.7042 160.954 45.5522C161.106 45.4013 161.226 45.221 161.307 45.0219C161.389 44.8229 161.429 44.6092 161.427 44.3938C161.424 43.9637 161.254 43.5521 160.954 43.248C160.654 42.9438 160.248 42.7715 159.823 42.7683H159.019V46.0256H159.823Z" fill="#445860"/>
<path d="M162.963 46.3618C162.959 46.2875 162.97 46.2131 162.995 46.1433C163.021 46.0735 163.06 46.0098 163.111 45.956C163.162 45.9023 163.223 45.8597 163.29 45.8309C163.358 45.8021 163.431 45.7878 163.504 45.7888C163.578 45.7868 163.651 45.8005 163.718 45.829C163.786 45.8575 163.847 45.9002 163.898 45.9542C163.948 46.0083 163.987 46.0725 164.011 46.1428C164.035 46.213 164.045 46.2876 164.039 46.3618C164.047 46.4382 164.039 46.5155 164.016 46.5887C163.992 46.6619 163.954 46.7292 163.903 46.7864C163.853 46.8436 163.791 46.8894 163.721 46.9207C163.652 46.952 163.577 46.9682 163.501 46.9682C163.425 46.9682 163.35 46.952 163.281 46.9207C163.212 46.8894 163.15 46.8436 163.099 46.7864C163.048 46.7292 163.01 46.6619 162.987 46.5887C162.963 46.5155 162.955 46.4382 162.963 46.3618Z" fill="#445860"/>
<path d="M53.2315 41.7281L51.4803 22.639L64.1137 36.3408V20.59C64.0955 20.1342 63.9651 19.6903 63.7344 19.2987C63.5036 18.9071 63.1799 18.5802 62.7926 18.3479L37.3536 4.40946C36.9527 4.21886 36.5153 4.12006 36.0724 4.12006C35.6296 4.12006 35.1922 4.21886 34.7913 4.40946L9.35224 18.3479C8.96423 18.5794 8.63989 18.906 8.40903 19.2978C8.17818 19.6896 8.04823 20.134 8.03113 20.59V35.3505L17.8626 32.1742L19.6077 49.3761L8.03113 37.8293V50.3975C8.04888 50.8542 8.17905 51.2992 8.40979 51.6919C8.64053 52.0845 8.96451 52.4125 9.35224 52.6459L34.7913 66.578C35.1882 66.7787 35.6258 66.8832 36.0694 66.8832C36.513 66.8832 36.9505 66.7787 37.3475 66.578L62.7926 52.6459C63.1796 52.4116 63.503 52.0835 63.7336 51.691C63.9643 51.2985 64.0949 50.854 64.1137 50.3975V39.0375L53.2315 41.7281ZM51.6154 42.1204L44.0206 43.9888L50.0117 24.9123L51.6154 42.1204ZM29.4945 28.3938L49.1576 22.01L42.5766 42.9052L29.4945 28.3938ZM41.7839 44.5369L20.5417 49.7623L27.8355 29.0664L41.7839 44.5369ZM61.9938 19.8364C62.1164 19.9227 62.2193 20.0346 62.2956 20.1646C62.3719 20.2946 62.4199 20.4396 62.4362 20.59V32.0496L40.174 7.88472L61.9938 19.8364ZM49.2374 20.2038L28.5913 26.9052L36.0079 5.84815L49.2374 20.2038ZM35.2091 6.10972L27.9584 26.6935L17.9302 15.5702L35.2091 6.10972ZM9.70248 33.0399V20.5838C9.71884 20.4334 9.76678 20.2883 9.8431 20.1584C9.91942 20.0284 10.0223 19.9165 10.1449 19.8302L16.2896 16.4857L17.7029 30.4428L9.70248 33.0399ZM16.9839 17.0338L26.5021 27.5841L18.3296 30.2373L16.9839 17.0338ZM18.5017 31.9811L27.1043 29.1972L20.2038 48.7159L18.5017 31.9811ZM10.1449 51.1511C10.0223 51.0648 9.91942 50.9529 9.8431 50.8229C9.76678 50.6929 9.71884 50.5479 9.70248 50.3975V40.4326L32.9909 63.6571L10.1449 51.1511ZM35.5839 65.0833L20.6523 50.4473L41.8515 45.2345L35.5839 65.0833ZM37.5011 64.5726L43.2894 46.206L52.4573 56.3765L37.5011 64.5726ZM44.1496 44.6428L51.6523 42.7744L52.6908 54.0908L44.1496 44.6428ZM62.4362 50.3913C62.4199 50.5417 62.3719 50.6867 62.2956 50.8167C62.2193 50.9467 62.1164 51.0586 61.9938 51.1449L54.4727 55.2741L53.2929 42.4007L62.4362 40.1461V50.3913Z" fill="url(#paint0_linear_13_1720)"/>
<defs>
<linearGradient id="paint0_linear_13_1720" x1="15.4846" y1="56.364" x2="58.9028" y2="13.5271" gradientUnits="userSpaceOnUse">
<stop stop-color="#00AEA5"/>
<stop offset="0.23" stop-color="#00ADAE"/>
<stop offset="0.62" stop-color="#00A9C7"/>
<stop offset="1" stop-color="#00A4E6"/>
</linearGradient>
</defs>
</svg>
