<svg width="63" height="63" viewBox="0 0 63 63" fill="none" xmlns="http://www.w3.org/2000/svg">
<path d="M61.5767 34.515L34.4836 61.6186C34.0858 62.0164 33.6251 62.32 33.1122 62.5398C32.5992 62.7492 32.0444 62.8644 31.4895 62.8644C30.9347 62.8644 30.3798 62.7597 29.8669 62.5398C29.3539 62.3305 28.8828 62.0164 28.4955 61.6186L24.4755 57.5986L33.2064 48.8572L15.8806 31.5105L22.7376 24.6534L40.21 42.1258L50.8253 31.5105L24.643 5.29671L28.5583 1.3814C28.9561 0.983589 29.4167 0.679995 29.9297 0.460151C30.4426 0.250776 30.9975 0.13562 31.5523 0.13562C32.1072 0.13562 32.662 0.240308 33.175 0.460151C33.688 0.669526 34.1591 0.983589 34.5464 1.3814L61.6395 28.485C62.0373 28.8828 62.3409 29.3539 62.5608 29.8773C62.7806 30.4008 62.8748 30.9556 62.8748 31.5105C62.8748 32.0758 62.7597 32.6202 62.5398 33.1436C62.32 33.6566 62.0059 34.1277 61.5976 34.515H61.5767Z" fill="#162027"/>
<path d="M22.6853 21.0522L12.2794 31.5105L29.5423 48.8572L22.6853 55.7142L1.37093 34.3475C0.575308 33.5519 0.13562 32.4736 0.13562 31.3534C0.13562 30.2333 0.575308 29.155 1.37093 28.3594L22.6853 7.02405L47.1612 31.5209L40.1681 38.5455L22.6853 21.0522Z" fill="#AEDF21"/>
</svg>
