<svg width="60" height="60" viewBox="0 0 60 60" fill="none" xmlns="http://www.w3.org/2000/svg">
<g clip-path="url(#clip0_13_870)">
<path d="M9.37524 29.9708C9.37524 15.8877 19.9017 4.26317 33.5159 2.53606C32.3646 2.38993 31.1912 2.31458 30.0002 2.31458C14.7261 2.31458 2.34399 14.6967 2.34399 29.9708C2.34399 45.2449 14.7261 57.6271 30.0002 57.6271C31.1912 57.6271 32.3646 57.5517 33.5159 57.4056C19.9017 55.6785 9.37524 44.0541 9.37524 29.9708Z" fill="#D7FBF9"/>
<path d="M30.0002 59.9707C3.37092 59.944 -10.0238 27.6042 8.7872 8.75755C19.9539 -2.87926 40.0467 -2.88114 51.2133 8.75802C70.0241 27.6064 56.6279 59.9455 30.0002 59.9707ZM30.0002 4.65834C16.0429 4.65834 4.68775 16.0134 4.68775 29.9708C6.07818 63.5512 53.9273 63.5414 55.3127 29.9706C55.3127 16.0136 43.9575 4.65834 30.0002 4.65834Z" fill="#00AEA5"/>
<path d="M43.722 23.5086C43.722 23.5086 39.1978 18.5186 39.1326 18.461C37.7831 17.2684 36.0481 16.6116 34.2472 16.6116H25.9879C24.187 16.6116 22.4519 17.2684 21.1025 18.461C21.0374 18.5186 16.5131 23.5086 16.5131 23.5086C14.3899 25.4809 14.0307 28.724 15.6917 31.1151C17.988 34.4207 23.0081 40.5211 26.4903 43.1167C29.1752 45.2679 31.0635 45.2646 33.7447 43.1167C37.227 40.5211 42.2471 34.4207 44.5433 31.1151C46.2043 28.724 45.8452 25.4808 43.722 23.5086ZM40.509 26.9223C40.6581 27.054 40.7655 27.2167 40.8294 27.3927H34.3695L37.805 23.9572C37.805 23.9574 40.4438 26.8648 40.509 26.9223ZM26.4008 21.299H33.8341L30.1175 25.0157L26.4008 21.299ZM19.726 26.9223C19.7912 26.8648 22.4299 23.9572 22.4299 23.9572L25.8654 27.3927H19.4055C19.4694 27.2167 19.5768 27.0542 19.726 26.9223ZM30.9434 39.3584C30.5854 39.6252 30.3094 39.8209 30.1175 39.9441C27.5661 38.2476 24.941 35.262 22.311 32.0803H37.9241C35.6648 34.8597 32.8919 37.906 30.9434 39.3584Z" fill="#40C8FF"/>
</g>
<defs>
<clipPath id="clip0_13_870">
<rect width="60" height="60" fill="white"/>
</clipPath>
</defs>
</svg>
