<svg width="60" height="60" viewBox="0 0 60 60" fill="none" xmlns="http://www.w3.org/2000/svg">
<path d="M9.3711 29.9707C9.3711 15.8848 19.8997 4.25789 33.5166 2.53043C17.1529 0.336358 2.21349 13.4366 2.33856 29.9708C2.21291 46.5029 17.1538 59.6076 33.5166 57.4111C19.8997 55.6835 9.3711 44.0567 9.3711 29.9707Z" fill="#D7FBF9"/>
<path d="M30.0002 59.9768C3.42072 60.0225 -10.0446 27.5134 8.78301 8.75306C19.9518 -2.88601 40.0488 -2.888 51.2176 8.75353C70.0444 27.5154 56.5785 60.0242 30.0002 59.9768ZM30.0002 4.65313C16.04 4.65313 4.68262 16.0105 4.68262 29.9707C5.95541 63.5119 54.05 63.5027 55.3178 29.9704C55.3178 16.0105 43.9603 4.65313 30.0002 4.65313ZM30.0002 9.34157C26.1169 9.48539 26.1189 15.0592 30.0002 15.2021C33.8839 15.058 33.8809 9.48422 30.0002 9.34157ZM47.6991 27.0405C43.8159 27.1843 43.8179 32.7581 47.6991 32.901C51.5827 32.7568 51.5798 27.1831 47.6991 27.0405ZM42.3074 14.3817C38.4242 14.5255 38.4262 20.0993 42.3074 20.2422C46.191 20.098 46.1881 14.5243 42.3074 14.3817ZM17.5758 14.3817C13.6925 14.5255 13.6945 20.0993 17.5758 20.2422C21.4595 20.098 21.4566 14.5243 17.5758 14.3817ZM12.1841 27.0405C8.3008 27.1843 8.3028 32.7581 12.1841 32.901C16.0678 32.7568 16.0649 27.1831 12.1841 27.0405Z" fill="#00AEA5"/>
<path d="M44.6682 44.6388C37.1303 52.5344 22.8699 52.5344 15.3322 44.6385C14.4166 43.7232 14.4166 42.2389 15.3322 41.3235C16.2477 40.408 17.7319 40.4079 18.6474 41.3235C21.6059 44.282 25.6377 45.9115 30.0002 45.9115C34.3627 45.9115 38.3945 44.2821 41.353 41.3235C43.622 39.2101 46.7866 42.3566 44.6682 44.6388ZM30.0002 33.4871C32.0105 33.4939 33.629 31.7815 33.5109 29.7752L38.1045 25.1816C39.02 24.2661 39.02 22.7818 38.1045 21.8664C37.189 20.951 35.7047 20.9509 34.7893 21.8664L30.1958 26.46C25.4076 26.3875 25.2181 33.2942 30.0002 33.4871Z" fill="#40C8FF"/>
</svg>
