<svg width="25" height="25" viewBox="0 0 25 25" fill="none" xmlns="http://www.w3.org/2000/svg">
<path d="M12.5 0.3125C5.76905 0.3125 0.3125 5.76905 0.3125 12.5C0.3125 19.2309 5.76905 24.6875 12.5 24.6875C19.2277 24.6798 24.6798 19.2277 24.6875 12.5C24.6875 5.76905 19.2309 0.3125 12.5 0.3125ZM8.43135 2.31967C7.15384 3.72305 6.17521 5.78512 5.64104 8.23438H2.39183C3.52913 5.54262 5.71371 3.40698 8.43135 2.31967ZM1.53125 12.5C1.53125 11.4416 1.68932 10.4215 1.96909 9.45312H5.41817C5.27282 10.4257 5.1875 11.4421 5.1875 12.5C5.1875 13.5579 5.27282 14.5743 5.41817 15.5469H1.96909C1.68932 14.5785 1.53125 13.5584 1.53125 12.5ZM2.39183 16.7656H5.64104C6.17521 19.2149 7.15384 21.2769 8.43135 22.6803C5.71371 21.593 3.52913 19.4574 2.39183 16.7656ZM11.8906 23.4132C9.6347 23.0081 7.73665 20.3798 6.88589 16.7656H11.8906V23.4132ZM11.8906 15.5469H6.65039C6.4944 14.5782 6.40625 13.558 6.40625 12.5C6.40625 11.442 6.4944 10.4218 6.65039 9.45312H11.8906V15.5469ZM11.8906 8.23438H6.88589C7.73665 4.62015 9.6347 1.99193 11.8906 1.58682V8.23438ZM22.6042 8.23438H19.359C18.8256 5.78899 17.8494 3.72915 16.5748 2.32592C19.2867 3.41509 21.4666 5.54761 22.6042 8.23438ZM13.1094 1.58682C15.3653 1.99193 17.2633 4.62015 18.1141 8.23438H13.1094V1.58682ZM13.1094 9.45312H18.3496C18.5056 10.4218 18.5938 11.442 18.5938 12.5C18.5938 13.558 18.5056 14.5782 18.3496 15.5469H13.1094V9.45312ZM13.1094 23.4132V16.7656H18.1141C17.2633 20.3798 15.3653 23.0081 13.1094 23.4132ZM16.5686 22.6803C17.8462 21.2769 18.8248 19.2149 19.359 16.7656H22.6082C21.4709 19.4574 19.2863 21.593 16.5686 22.6803ZM19.5818 15.5469C19.7272 14.5743 19.8125 13.5579 19.8125 12.5C19.8125 11.4421 19.7272 10.4257 19.5818 9.45312H23.0278C23.3084 10.4214 23.4676 11.4415 23.4688 12.5C23.4688 13.5584 23.3107 14.5785 23.0309 15.5469H19.5818Z" fill="#00AEA5"/>
</svg>
