<svg width="60" height="52" viewBox="0 0 60 52" fill="none" xmlns="http://www.w3.org/2000/svg">
<path d="M12.1562 24.6263C11.3079 23.7781 10.7833 22.6063 10.7833 21.3119C10.7833 20.3514 11.0721 19.4585 11.5677 18.715L20.9425 4.65284C21.7827 3.39251 23.2172 2.56226 24.8455 2.56226H16.4066C14.7782 2.56226 13.3439 3.39251 12.5037 4.65284L3.12885 18.715C1.90568 20.5497 2.12036 23.0293 3.71736 24.6263L26.6856 48.0633C28.5148 49.8926 31.4823 49.8956 33.3145 48.0633L34.2195 47.1399L12.1562 24.6263Z" fill="#D7FBF9"/>
<path d="M25.0282 49.7205C25.0226 49.715 25.0171 49.7094 25.0116 49.7037L2.05083 26.2743C-0.37654 23.8382 -0.625675 20.1214 1.17886 17.4149L10.5537 3.35274C11.862 1.39012 14.05 0.218506 16.4066 0.218506H43.5935C45.9501 0.218506 48.1381 1.39024 49.4464 3.35274L58.8212 17.4149C60.626 20.1219 60.3762 23.8387 57.9493 26.2743L34.9884 49.7037C34.9829 49.7094 34.9774 49.715 34.9717 49.7205C32.2242 52.4682 27.7762 52.4687 25.0282 49.7205ZM28.3503 46.4134C29.2639 47.3193 30.7357 47.3198 31.6498 46.4134L54.6089 22.9859C54.6144 22.9803 54.62 22.9747 54.6255 22.969C55.4471 22.1476 55.5129 20.9026 54.9212 20.0152L45.5464 5.95295C45.1094 5.2973 44.3792 4.9059 43.5935 4.9059H16.4066C15.6209 4.9059 14.8907 5.2973 14.4537 5.95295L5.07889 20.0152C4.48722 20.9028 4.55308 22.1477 5.37455 22.9691C5.38006 22.9747 5.38568 22.9804 5.39119 22.986L28.3503 46.4134Z" fill="#00AEA5"/>
<path d="M46.8086 18.9681H35.6582L41.032 13.5942C41.9474 12.6789 41.9474 11.195 41.032 10.2798C40.1167 9.36455 38.6327 9.36443 37.7175 10.2798L30 17.9973L22.2826 10.2798C21.3672 9.36443 19.8832 9.36443 18.968 10.2798C18.0528 11.1951 18.0527 12.679 18.968 13.5942L24.3419 18.9681H13.1915C11.8971 18.9681 10.8478 20.0174 10.8478 21.3118C10.8478 22.6062 11.8971 23.6555 13.1915 23.6555H46.8087C48.1031 23.6555 49.1524 22.6062 49.1524 21.3118C49.1524 20.0174 48.103 18.9681 46.8086 18.9681Z" fill="#40C8FF"/>
</svg>
