<svg width="667" height="667" viewBox="0 0 667 667" fill="none" xmlns="http://www.w3.org/2000/svg">
<path d="M624.618 104.819C624.618 155.703 583.369 196.951 532.487 196.951C481.606 196.951 440.358 155.703 440.358 104.819C440.358 53.9381 481.606 12.6897 532.487 12.6897C583.369 12.6897 624.618 53.9381 624.618 104.819Z" fill="#FCCB40"/>
<path d="M174.769 479.171C165.133 476.066 154.859 474.383 144.191 474.383C107.096 474.383 74.7373 494.657 57.5838 524.725C35.7576 526.01 15.8195 534.314 0 547.42V667H108.29H143.46C136.939 655.361 133.217 641.938 133.217 627.647C133.217 607.515 140.594 589.106 152.792 574.976C164.324 561.62 180.167 552.092 198.158 548.54C194.901 541.043 191.733 533.069 188.675 524.592C183.711 510.825 179.041 495.727 174.769 479.171Z" fill="#00AEA5"/>
<path d="M304.807 663.526C302.354 664.349 299.849 665.055 297.298 665.644C294.816 666.211 292.288 666.667 289.725 667H298.247H308.838C307.634 665.933 306.464 664.827 305.33 663.687C305.156 663.632 304.982 663.582 304.807 663.526Z" fill="#7C96A3"/>
<path d="M440.463 507.001C438.818 482.455 419.338 462.795 394.868 460.873C403.337 478.423 412.193 494.445 421.323 509.072C422.561 509.172 423.787 509.309 425.002 509.483C431.75 510.451 438.135 512.546 443.955 515.579C445.708 512.519 447.854 509.712 450.322 507.226C448.174 507.027 445.998 506.92 443.799 506.92C442.681 506.92 441.569 506.949 440.463 507.001Z" fill="#00AEA5"/>
<path d="M650.714 506.242C625.929 506.242 605.313 524.097 601.034 547.646C591.129 551.153 582.213 556.762 574.832 563.932C578.044 562.92 581.463 562.364 585.014 562.364C601.756 562.364 615.663 574.459 618.492 590.384C625.435 579.017 636.151 570.213 648.896 565.699C649.93 560.002 652.154 554.725 655.288 550.115C658.384 545.562 662.37 541.662 667 538.678V508.927C661.892 507.187 656.411 506.242 650.714 506.242Z" fill="#00AEA5"/>
<path d="M655.289 550.115C652.154 554.725 649.93 560.002 648.896 565.699C636.151 570.213 625.435 579.017 618.492 590.384C615.663 574.459 601.756 562.364 585.015 562.364C581.463 562.364 578.044 562.92 574.832 563.932C574.065 564.171 573.303 564.432 572.564 564.727C563.432 545.796 544.061 532.736 521.639 532.736C520.734 532.736 519.834 532.76 518.939 532.802C517.537 511.88 500.124 495.342 478.846 495.342C467.693 495.342 457.602 499.888 450.322 507.226C447.854 509.712 445.708 512.519 443.955 515.579C438.135 512.546 431.75 510.451 425.002 509.483C423.787 509.309 422.561 509.172 421.323 509.072C419.726 508.944 418.114 508.872 416.485 508.872C410.021 508.872 403.801 509.908 397.975 511.814C488.415 620.671 574.32 667 574.32 667H579.751C579.834 666.883 579.918 666.772 580.001 666.655C580.084 666.772 580.168 666.883 580.251 667H647.546H665.599H667V538.678C662.37 541.662 658.385 545.562 655.289 550.115Z" fill="#40C8FF"/>
<path d="M308.838 667H364.071C364.071 667 307.8 637.697 266.236 507.441C241.722 511.388 220.903 526.374 209.053 547.147C205.348 547.366 201.712 547.839 198.158 548.54C180.167 552.092 164.324 561.62 152.792 574.976C140.594 589.106 133.217 607.515 133.217 627.647C133.217 641.938 136.939 655.361 143.46 667H289.725H308.838Z" fill="#40C8FF"/>
<path d="M218.098 137.452C218.382 137.52 218.668 137.586 218.954 137.65L218.652 133.283L218.098 137.452Z" fill="#5FA1A5"/>
<path d="M249.923 90.7176C249.855 90.7231 249.787 90.7232 249.719 90.7232L249.969 91.2289C249.955 91.0566 249.934 90.8899 249.923 90.7176Z" fill="#5FA1A5"/>
<path d="M226.339 138.773C226.648 138.799 226.958 138.824 227.269 138.844L226.455 137.238L226.339 138.773Z" fill="#5FA1A5"/>
<path d="M234.094 116.54H210.904V113.831H234.094V116.54ZM232.333 120.279H212.665V117.57H232.333V120.279ZM372.696 89.1335C368.514 90.1951 364.134 90.7621 359.622 90.7621C357.602 90.7621 355.61 90.6454 353.649 90.4286C346.182 100.606 334.137 107.215 320.546 107.215C313.715 107.215 307.276 105.542 301.611 102.59C296.835 110.922 287.853 116.54 277.559 116.54C266.673 116.54 257.26 110.255 252.732 101.123L250.741 112.67H245.001L239.227 106.92V89.8172V89.7505C238.859 89.6671 238.493 89.5782 238.129 89.4837V106.892H235.628V112.727H222.5H209.371V106.892H206.87V70.2074C206.506 70.2463 206.14 70.2741 205.772 70.2963V89.8172V106.92L199.998 112.67H194.258L191.711 97.899L205.424 70.3185C205.076 70.3352 204.727 70.3408 204.375 70.3408C192.836 70.3408 183.252 62.0033 181.299 51.0256C176.515 58.8628 169.128 64.9325 160.341 68.0452C157.952 81.1795 146.452 91.1401 132.624 91.1401C117.065 91.1401 104.451 78.5282 104.451 62.9705C104.451 56.684 106.509 50.881 109.988 46.1954C107.828 41.254 106.627 35.8013 106.627 30.0707C106.627 18.1091 111.842 7.37599 120.117 7.62939e-05H0V112.761C9.43182 107.393 16.3024 98.0435 18.3121 86.9935C29.9711 82.8637 39.7716 74.8097 46.1198 64.4156C48.7099 78.9785 61.4279 90.0451 76.7383 90.0451C80.7592 90.0451 84.5984 89.2724 88.1268 87.8829C96.4771 105.197 114.195 117.139 134.702 117.139C135.531 117.139 136.353 117.118 137.172 117.079C137.573 123.068 139.409 128.663 142.339 133.526L148.936 115.594L161.274 149.126C165.195 150.554 169.425 151.339 173.84 151.339C187.499 151.339 199.417 143.889 205.752 132.831C209.277 134.667 213.03 136.125 216.953 137.161L216.227 130.14L215.221 131.99L212.665 122.283L217.309 121.579L222.5 122.283L227.69 121.579L232.333 122.283L229.778 131.99L229.038 128.815L228.406 138.904C229.226 138.941 230.048 138.966 230.877 138.966C248.909 138.966 264.892 130.196 274.799 116.691C277.401 116.984 280.044 117.139 282.724 117.139C288.711 117.139 294.522 116.388 300.071 114.978C313.601 131.026 333.85 141.223 356.484 141.223C381.871 141.223 404.254 128.39 417.523 108.866C416.757 108.893 415.987 108.916 415.213 108.916C398.154 108.916 382.893 101.228 372.696 89.1335Z" fill="#00AEA5"/>
<path d="M225.145 138.661C225.216 138.668 225.287 138.677 225.359 138.684L225.106 137.326C225.106 137.326 225.122 137.848 225.145 138.661Z" fill="#5FA1A5"/>
<path d="M463.531 80.8294C460.598 85.9708 456.866 90.5954 452.507 94.5418C458.097 91.3735 463.229 87.4994 467.788 83.036C468.819 82.0244 469.824 80.985 470.795 79.9178C468.423 80.3736 466 80.6849 463.531 80.8294Z" fill="#40C8FF"/>
<path d="M470.795 79.9177C469.824 80.9849 468.819 82.0244 467.788 83.036C471.77 84.2088 475.983 84.8424 480.345 84.8424C495.067 84.8424 508.115 77.6833 516.204 66.6556C518.328 66.8946 520.485 67.0224 522.674 67.0224C527.562 67.0224 532.306 66.4054 536.836 65.2548C547.882 78.3558 564.416 86.6822 582.891 86.6822C605.314 86.6822 624.868 74.4317 635.234 56.2615C647.062 55.5611 657.979 51.4535 667 44.8947V2.28882e-05H509.707C513.605 7.59826 515.806 16.2137 515.806 25.3405C515.806 52.4262 496.436 74.9764 470.795 79.9177Z" fill="#D7FBF9"/>
<path d="M199.758 62.4646L205.772 56.695V67.5838L199.758 65.9608V62.4646ZM239.227 56.695L245.242 62.4646V65.9608L239.227 67.5838V56.695ZM120.117 5.34058e-05C111.842 7.37596 106.627 18.1091 106.627 30.0706C106.627 35.8013 107.828 41.254 109.988 46.1953C106.509 50.881 104.451 56.684 104.451 62.9704C104.451 78.5282 117.065 91.14 132.624 91.14C146.452 91.14 157.952 81.1795 160.341 68.0452C169.129 64.9325 176.515 58.8628 181.299 51.0256C183.252 62.0033 192.837 70.3408 204.376 70.3408C204.727 70.3408 205.077 70.3352 205.424 70.3185L205.772 69.6182V70.2963C206.14 70.2741 206.506 70.2462 206.87 70.2073V56.6673H208.779V54.2327H206.87L222.5 11.7504L238.129 54.2327H236.22V56.6673H238.129V89.4837C238.493 89.5782 238.86 89.6671 239.227 89.7505V69.6182L249.719 90.7232C249.787 90.7232 249.856 90.7231 249.923 90.7176C249.934 90.8899 249.955 91.0567 249.97 91.229L253.287 97.899L252.732 101.123C257.26 110.255 266.673 116.54 277.559 116.54C287.853 116.54 296.835 110.922 301.611 102.59C307.276 105.542 313.715 107.215 320.546 107.215C334.137 107.215 346.182 100.606 353.649 90.4286C355.61 90.6454 357.602 90.7621 359.622 90.7621C364.134 90.7621 368.514 90.1951 372.696 89.1335C382.893 101.228 398.154 108.916 415.213 108.916C415.987 108.916 416.757 108.893 417.523 108.866C430.967 108.315 443.177 102.99 452.507 94.5418C456.866 90.5953 460.598 85.9708 463.531 80.8293C466 80.6848 468.423 80.3735 470.795 79.9178C496.436 74.9764 515.806 52.4263 515.806 25.3405C515.806 16.2137 513.605 7.5983 509.707 5.34058e-05H399.474H120.117Z" fill="#CCEEF7"/>
<path d="M198.159 548.54C201.712 547.839 205.348 547.366 209.053 547.147C220.903 526.374 241.723 511.388 266.236 507.441C259.382 485.963 252.929 461.742 247.193 434.453C204.314 380.441 169.008 314.449 148.936 234.006C148.936 339.227 159.212 418.875 174.769 479.17C179.041 495.727 183.711 510.825 188.675 524.592C191.733 533.069 194.901 541.043 198.159 548.54Z" fill="#B4E6E8"/>
<path d="M397.975 511.814C403.801 509.908 410.021 508.872 416.485 508.872C418.114 508.872 419.726 508.944 421.323 509.072C412.193 494.445 403.337 478.423 394.868 460.873C376.922 423.677 360.724 379.615 347.396 327.386C347.396 370.173 348.428 411.518 351.147 449.758C366.613 472.364 382.361 493.019 397.975 511.814Z" fill="#DDD5EE"/>
<path d="M579.751 667H580.251C580.168 666.883 580.084 666.772 580.001 666.655C579.917 666.772 579.834 666.883 579.751 667Z" fill="#DDD5EE"/>
<path d="M397.975 511.814C382.36 493.019 366.612 472.364 351.147 449.758C300.251 375.366 252.426 279.891 222.598 160.345C222.598 275.234 232.558 364.823 247.193 434.453C252.928 461.742 259.382 485.963 266.236 507.441C307.8 637.697 364.071 667 364.071 667H455.348H574.32C574.32 667 488.414 620.671 397.975 511.814Z" fill="#CCEEF7"/>
<path d="M245.241 62.4646L239.227 56.6951V67.5838L245.241 65.9608V62.4646Z" fill="#9D2120"/>
<path d="M249.969 91.2289L249.719 90.7231L239.227 69.6181V106.92L245.001 112.67H250.741L252.732 101.123L253.287 97.8989L249.969 91.2289Z" fill="#9D2120"/>
<path d="M205.772 56.6951L199.758 62.4646V65.9608L205.772 67.5838V56.6951Z" fill="#9D2120"/>
<path d="M205.424 70.3184L191.711 97.8989L194.258 112.67H199.998L205.772 106.92V89.8171V70.2962V69.6181L205.424 70.3184Z" fill="#9D2120"/>
<path d="M226.093 87.5493C226.093 89.5281 224.476 91.1456 222.5 91.1456C220.524 91.1456 218.907 89.5281 218.907 87.5493V86.799C218.907 84.8258 220.524 83.2083 222.5 83.2083C224.476 83.2083 226.093 84.8258 226.093 86.799V87.5493ZM224.655 97.6878C224.655 98.8772 223.685 99.8444 222.5 99.8444C221.314 99.8444 220.344 98.8772 220.344 97.6878V97.2376C220.344 96.0536 221.314 95.0809 222.5 95.0809C223.685 95.0809 224.655 96.0536 224.655 97.2376V97.6878ZM223.793 104.958C223.793 105.67 223.211 106.253 222.5 106.253C221.788 106.253 221.206 105.67 221.206 104.958V104.686C221.206 103.974 221.788 103.391 222.5 103.391C223.211 103.391 223.793 103.974 223.793 104.686V104.958ZM222.5 56.4338C225.507 56.4338 227.945 58.8739 227.945 61.881C227.945 64.888 225.507 67.3226 222.5 67.3226C219.492 67.3226 217.054 64.888 217.054 61.881C217.054 58.8739 219.492 56.4338 222.5 56.4338ZM236.22 56.6673V54.2327H238.129L222.5 11.7504L206.87 54.2327H208.779V56.6673H206.87V70.2073V106.892H209.371V112.727H222.5H235.628V106.892H238.129V89.4837V56.6673H236.22Z" fill="#192F3A"/>
<path d="M229.778 131.99L232.333 122.283L227.69 121.579L222.5 122.283L217.309 121.579L212.665 122.283L215.221 131.99L216.227 130.14L216.953 137.161L217.309 140.597L217.961 138.484L218.098 137.452L218.653 133.283L218.954 137.65L219.072 139.368L219.934 138.971C219.934 138.971 220.152 148.686 220.404 148.169C220.656 147.651 221.374 145.961 221.374 145.961L222.5 158.911L223.335 142.991C223.335 142.991 224.969 148.045 225.221 148.562C225.42 148.971 225.233 141.722 225.145 138.661C225.122 137.848 225.106 137.326 225.106 137.326L225.359 138.684L226.061 142.447L226.339 138.773L226.455 137.238L227.269 138.844L227.389 139.08L228.297 140.651L228.406 138.904L229.038 128.815L229.778 131.99Z" fill="#DA2424"/>
<path d="M234.094 113.831H210.904V116.54H234.094V113.831Z" fill="#9D2120"/>
<path d="M212.665 120.279H232.333V117.57H212.665V120.279Z" fill="#192F3A"/>
<path d="M222.5 83.2083C220.524 83.2083 218.907 84.8258 218.907 86.799V87.5494C218.907 89.5281 220.524 91.1456 222.5 91.1456C224.476 91.1456 226.093 89.5281 226.093 87.5494V86.799C226.093 84.8258 224.476 83.2083 222.5 83.2083Z" fill="#FAC065"/>
<path d="M222.5 95.0809C221.314 95.0809 220.344 96.0537 220.344 97.2376V97.6878C220.344 98.8773 221.314 99.8444 222.5 99.8444C223.685 99.8444 224.655 98.8773 224.655 97.6878V97.2376C224.655 96.0537 223.685 95.0809 222.5 95.0809Z" fill="#FAC065"/>
<path d="M222.5 103.391C221.788 103.391 221.206 103.974 221.206 104.686V104.958C221.206 105.669 221.788 106.253 222.5 106.253C223.211 106.253 223.793 105.669 223.793 104.958V104.686C223.793 103.974 223.211 103.391 222.5 103.391Z" fill="#FAC065"/>
<path d="M222.5 67.3225C225.507 67.3225 227.945 64.888 227.945 61.8809C227.945 58.8739 225.507 56.4337 222.5 56.4337C219.492 56.4337 217.054 58.8739 217.054 61.8809C217.054 64.888 219.492 67.3225 222.5 67.3225Z" fill="#FAC065"/>
<path d="M167.13 156.164L162.318 151.547V160.26L167.13 158.96V156.164Z" fill="#592F29"/>
<path d="M171.53 196.328L173.567 184.514L162.318 161.887V191.731L166.937 196.328H171.53Z" fill="#592F29"/>
<path d="M135.554 151.547L130.743 156.164V158.96L135.554 160.26V151.547Z" fill="#592F29"/>
<path d="M130.935 196.328L135.554 191.731V161.887L124.306 184.514L126.343 196.328H130.935Z" fill="#592F29"/>
<path d="M148.936 160.052C146.53 160.052 144.58 158.101 144.58 155.696C144.58 153.29 146.53 151.339 148.936 151.339C151.342 151.339 153.293 153.29 153.293 155.696C153.293 158.101 151.342 160.052 148.936 160.052ZM151.81 176.234C151.81 177.815 150.517 179.107 148.936 179.107C147.355 179.107 146.062 177.815 146.062 176.234V175.633C146.062 174.052 147.355 172.759 148.936 172.759C150.517 172.759 151.81 174.052 151.81 175.633V176.234ZM150.661 184.344C150.661 185.292 149.885 186.069 148.936 186.069C147.988 186.069 147.212 185.292 147.212 184.344V183.984C147.212 183.035 147.988 182.259 148.936 182.259C149.885 182.259 150.661 183.035 150.661 183.984V184.344ZM149.971 190.158C149.971 190.727 149.505 191.193 148.936 191.193C148.367 191.193 147.902 190.727 147.902 190.158V189.942C147.902 189.373 148.367 188.907 148.936 188.907C149.505 188.907 149.971 189.373 149.971 189.942V190.158ZM142.339 133.526L136.432 149.577H137.96V151.527H136.432V191.706H138.433V196.374H148.936H159.439V191.706H161.439V151.527H159.913V149.577H161.439L161.274 149.126L148.936 115.594L142.339 133.526Z" fill="#5B6A73"/>
<path d="M148.936 204.019L144.783 203.456L141.069 204.019L143.114 211.785L143.918 210.305L144.783 218.67L145.305 216.98L145.859 212.819L146.195 217.687L146.884 217.369C146.884 217.369 147.058 225.141 147.26 224.727C147.461 224.313 148.036 222.961 148.036 222.961L148.936 233.321L149.605 220.586C149.605 220.586 150.912 224.628 151.113 225.042C151.315 225.456 151.021 216.054 151.021 216.054L151.785 220.151L152.1 215.983L152.848 217.456L153.574 218.714L154.167 209.245L154.758 211.785L156.803 204.019L153.089 203.456L148.936 204.019Z" fill="#DA2424"/>
<path d="M158.212 197.257H139.66V199.425H158.212V197.257Z" fill="#592F29"/>
<path d="M141.02 200.695L141.143 202.859L156.852 201.969L156.73 199.806L141.02 200.695Z" fill="#649ABC"/>
<path d="M148.936 172.759C147.355 172.759 146.062 174.052 146.062 175.633V176.234C146.062 177.814 147.355 179.107 148.936 179.107C150.517 179.107 151.81 177.814 151.81 176.234V175.633C151.81 174.052 150.517 172.759 148.936 172.759Z" fill="#FAC065"/>
<path d="M148.936 182.259C147.988 182.259 147.212 183.035 147.212 183.984V184.344C147.212 185.292 147.988 186.069 148.936 186.069C149.885 186.069 150.661 185.292 150.661 184.344V183.984C150.661 183.035 149.885 182.259 148.936 182.259Z" fill="#FAC065"/>
<path d="M148.936 188.907C148.367 188.907 147.902 189.373 147.902 189.942V190.158C147.902 190.727 148.367 191.193 148.936 191.193C149.505 191.193 149.971 190.727 149.971 190.158V189.942C149.971 189.373 149.505 188.907 148.936 188.907Z" fill="#FAC065"/>
<path d="M148.936 151.339C146.531 151.339 144.58 153.29 144.58 155.696C144.58 158.101 146.531 160.052 148.936 160.052C151.342 160.052 153.293 158.101 153.293 155.696C153.293 153.29 151.342 151.339 148.936 151.339Z" fill="#FAC065"/>
<path d="M361.951 262.815L358.102 259.122V266.091L361.951 265.051V262.815Z" fill="#76644F"/>
<path d="M365.471 294.946L367.1 285.494L358.102 267.393V291.268L361.796 294.946H365.471Z" fill="#76644F"/>
<path d="M336.69 259.122L332.841 262.815V265.051L336.69 266.091V259.122Z" fill="#76644F"/>
<path d="M332.995 294.946L336.69 291.268V267.393L327.692 285.494L329.321 294.946H332.995Z" fill="#76644F"/>
<path d="M347.396 258.955C349.321 258.955 350.881 260.515 350.881 262.439C350.881 264.364 349.321 265.925 347.396 265.925C345.471 265.925 343.911 264.364 343.911 262.439C343.911 260.515 345.471 258.955 347.396 258.955ZM349.695 278.87C349.695 280.135 348.66 281.169 347.396 281.169C346.131 281.169 345.096 280.135 345.096 278.87V278.39C345.096 277.125 346.131 276.09 347.396 276.09C348.66 276.09 349.695 277.125 349.695 278.39V278.87ZM348.775 285.358C348.775 286.117 348.155 286.738 347.396 286.738C346.637 286.738 346.016 286.117 346.016 285.358V285.07C346.016 284.311 346.637 283.691 347.396 283.691C348.155 283.691 348.775 284.311 348.775 285.07V285.358ZM348.223 290.01C348.223 290.465 347.851 290.838 347.396 290.838C346.941 290.838 346.568 290.465 346.568 290.01V289.837C346.568 289.381 346.941 289.009 347.396 289.009C347.851 289.009 348.223 289.381 348.223 289.837V290.01ZM338.993 294.982H355.798V291.248H357.399V259.106H356.177V257.545H357.399L347.396 230.358L337.393 257.545H338.615V259.106H337.393V291.248H338.993V294.982Z" fill="#2B312B"/>
<path d="M347.396 301.099L344.074 300.648L341.102 301.099L342.738 307.311L343.381 306.127L344.074 312.82L344.49 311.467L344.933 308.139L345.202 312.033L345.754 311.779C345.754 311.779 345.893 317.996 346.055 317.666C346.216 317.334 346.675 316.253 346.675 316.253L347.396 324.54L347.931 314.352C347.931 314.352 348.977 317.586 349.138 317.917C349.299 318.249 349.064 310.726 349.064 310.726L349.675 314.004L349.928 310.67L350.525 311.849L351.106 312.854L351.58 305.279L352.054 307.311L353.689 301.099L350.718 300.648L347.396 301.099Z" fill="#DA2424"/>
<path d="M339.975 297.423H354.817V295.689H339.975V297.423Z" fill="#76644F"/>
<path d="M341.102 299.816H353.689V298.082H341.102V299.816Z" fill="#2B312B"/>
<path d="M347.396 276.09C346.131 276.09 345.096 277.125 345.096 278.39V278.87C345.096 280.135 346.131 281.169 347.396 281.169C348.66 281.169 349.695 280.135 349.695 278.87V278.39C349.695 277.125 348.66 276.09 347.396 276.09Z" fill="#FAC065"/>
<path d="M347.396 283.691C346.637 283.691 346.016 284.311 346.016 285.07V285.358C346.016 286.117 346.637 286.738 347.396 286.738C348.154 286.738 348.775 286.117 348.775 285.358V285.07C348.775 284.311 348.154 283.691 347.396 283.691Z" fill="#FAC065"/>
<path d="M347.396 289.009C346.94 289.009 346.568 289.381 346.568 289.837V290.01C346.568 290.465 346.94 290.838 347.396 290.838C347.851 290.838 348.223 290.465 348.223 290.01V289.837C348.223 289.381 347.851 289.009 347.396 289.009Z" fill="#FAC065"/>
<path d="M347.396 265.925C349.321 265.925 350.881 264.364 350.881 262.439C350.881 260.515 349.321 258.955 347.396 258.955C345.471 258.955 343.911 260.515 343.911 262.439C343.911 264.364 345.471 265.925 347.396 265.925Z" fill="#FAC065"/>
</svg>
