<svg width="26" height="25" viewBox="0 0 26 25" fill="none" xmlns="http://www.w3.org/2000/svg">
<path d="M13.125 8.08203C12.7043 8.08203 12.3633 8.42309 12.3633 8.84375C12.3633 9.26441 12.7043 9.60547 13.125 9.60547C13.5457 9.60547 13.8867 9.26441 13.8867 8.84375C13.8867 8.42309 13.5457 8.08203 13.125 8.08203ZM13.125 10.6719C12.7885 10.6719 12.5156 10.9447 12.5156 11.2812V16.1569C12.5158 16.4933 12.7886 16.7658 13.125 16.7656H13.1257C13.462 16.7654 13.7346 16.4926 13.7344 16.1562V11.2812C13.7344 10.9447 13.4615 10.6719 13.125 10.6719ZM13.125 0.3125C6.39405 0.3125 0.9375 5.76905 0.9375 12.5C0.9375 19.2309 6.39405 24.6875 13.125 24.6875C19.8527 24.6796 25.3046 19.2277 25.3125 12.5C25.3125 5.76905 19.8559 0.3125 13.125 0.3125ZM13.125 23.4688C7.0671 23.4688 2.15625 18.5579 2.15625 12.5C2.15625 6.4421 7.0671 1.53125 13.125 1.53125C19.1801 1.53787 24.0871 6.44486 24.0938 12.5C24.0938 18.5579 19.1829 23.4688 13.125 23.4688Z" fill="#00AEA5"/>
</svg>
