<svg width="483" height="541" viewBox="0 0 483 541" fill="none" xmlns="http://www.w3.org/2000/svg">
<path d="M389.279 324.17L374.197 159.628L483 277.733V141.966C482.843 138.038 481.72 134.211 479.733 130.836C477.745 127.46 474.957 124.643 471.622 122.64L252.534 2.49459C249.081 0.851683 245.314 0 241.5 0C237.686 0 233.919 0.851683 230.466 2.49459L11.3778 122.64C8.03619 124.635 5.24283 127.451 3.25464 130.828C1.26646 134.205 0.147263 138.035 0 141.966V269.197L84.6719 241.818L99.7011 390.094L0 290.564V398.898C0.152899 402.835 1.27398 406.67 3.26118 410.055C5.24838 413.44 8.03858 416.267 11.3778 418.278L230.466 538.37C233.885 540.1 237.653 541 241.474 541C245.294 541 249.062 540.1 252.481 538.37L471.622 418.278C474.955 416.259 477.74 413.431 479.726 410.047C481.713 406.664 482.838 402.833 483 398.898V300.978L389.279 324.17ZM375.361 327.552L309.952 343.657L361.549 179.223L375.361 327.552ZM184.849 209.232L354.193 154.206L297.516 334.316L184.849 209.232ZM290.689 348.382L107.745 393.423L170.561 215.03L290.689 348.382ZM464.743 135.47C465.798 136.214 466.685 137.179 467.342 138.299C467.999 139.42 468.412 140.67 468.553 141.966V240.745L276.824 32.4503L464.743 135.47ZM354.881 138.638L177.07 196.402L240.944 14.8956L354.881 138.638ZM234.065 17.1504L171.619 194.576L85.254 98.6966L234.065 17.1504ZM14.3942 249.281V141.912C14.535 140.616 14.948 139.366 15.6052 138.245C16.2625 137.125 17.1488 136.16 18.2045 135.417L71.1244 106.588L83.2959 226.894L14.3942 249.281ZM77.1043 111.312L159.077 202.253L88.6938 225.123L77.1043 111.312ZM90.1755 240.154L164.263 216.157L104.834 384.404L90.1755 240.154ZM18.2045 405.394C17.1488 404.65 16.2625 403.686 15.6052 402.565C14.948 401.445 14.535 400.194 14.3942 398.898V313.004L214.961 513.192L18.2045 405.394ZM237.293 525.485L108.697 399.328L291.271 354.394L237.293 525.485ZM253.804 521.083L303.654 362.769L382.611 450.435L253.804 521.083ZM311.063 349.294L375.678 333.189L384.622 430.733L311.063 349.294ZM468.553 398.845C468.412 400.141 467.999 401.391 467.342 402.511C466.685 403.632 465.798 404.597 464.743 405.34L399.969 440.933L389.808 329.968L468.553 310.534V398.845Z" fill="white" fill-opacity="0.1"/>
</svg>
