<svg width="53" height="83" viewBox="0 0 53 83" fill="none" xmlns="http://www.w3.org/2000/svg">
<path d="M28.3351 0.545593C26.333 3.74031 24.3301 6.93503 22.2825 10.2033C27.2317 18.1196 32.1852 26.0403 37.1369 33.9619C42.0931 41.8905 47.0475 49.82 52.0474 57.8212C50.0208 61.0623 47.9951 64.3034 45.9642 67.5515C45.3701 67.0247 11.3771 12.845 9.94116 10.1542C11.9458 6.97266 13.9715 3.75956 15.9963 0.545593C20.1098 0.545593 24.2224 0.545593 28.3351 0.545593Z" fill="black"/>
<path d="M46.9344 0.54549L40.8906 10.2005L52.0848 28.1202L45.866 38.0596L28.4583 10.2136L34.4119 0.54549H46.9344Z" fill="black"/>
<path d="M24.472 82.2289C26.495 78.986 28.4524 75.8473 30.4563 72.636C20.5448 56.7805 10.6334 40.9242 0.691406 25.0189C2.72409 21.7734 4.7664 18.5104 6.87871 15.1381C18.8972 34.3641 30.843 53.4738 42.7985 72.5992C42.6672 72.8372 42.5605 73.0551 42.4327 73.2599C40.6783 76.0696 38.9143 78.8731 37.1721 81.6898C36.9236 82.0906 36.6733 82.2989 36.1614 82.2954C32.4172 82.2709 28.673 82.2822 24.9278 82.2796C24.8377 82.2796 24.7467 82.2604 24.472 82.2289Z" fill="black"/>
</svg>
