<svg width="19" height="17" viewBox="0 0 19 17" fill="none" xmlns="http://www.w3.org/2000/svg">
<path d="M18.2021 0.41906C17.8176 0.100281 17.2893 0.01825 16.8263 0.205437L1.14895 6.53466C0.459325 6.81851 0.130398 7.60769 0.41425 8.29726C0.561063 8.65391 0.853299 8.93071 1.21731 9.05798L4.59939 10.2338L6.43228 16.2938C6.43596 16.3062 6.44728 16.3137 6.45204 16.3255C6.471 16.3739 6.49871 16.4184 6.5337 16.4567C6.54673 16.4721 6.56093 16.4866 6.5761 16.5C6.62176 16.5379 6.67479 16.5659 6.73183 16.5823C6.74054 16.5848 6.74636 16.5926 6.75522 16.5946L6.76035 16.5944L6.76291 16.5955C6.79213 16.602 6.82193 16.6051 6.85178 16.6049C6.89082 16.6035 6.92954 16.5967 6.96671 16.5848C6.97392 16.5828 6.98118 16.5834 6.98823 16.581C7.05173 16.5587 7.10909 16.5219 7.15582 16.4735C7.16127 16.468 7.16954 16.4671 7.17478 16.4613L9.81174 13.5518L13.6587 16.5305C13.8924 16.7133 14.1806 16.8125 14.4773 16.8125C15.119 16.8124 15.6729 16.3629 15.8051 15.735L18.6601 1.7196C18.759 1.23478 18.5829 0.734902 18.2021 0.41906ZM7.38931 11.383L6.7705 14.3902L5.48 10.1221L11.8805 6.78925L7.50808 11.1617C7.44763 11.2222 7.40635 11.2992 7.38931 11.383ZM14.9481 15.559C14.9146 15.72 14.7997 15.8521 14.6448 15.9076C14.4935 15.9658 14.3226 15.9398 14.1953 15.8392L10.0271 12.6118C9.84667 12.4721 9.58909 12.4948 9.43582 12.6639L7.60213 14.6871L8.21988 11.6881L14.5098 5.39733C14.6807 5.2267 14.681 4.94984 14.5104 4.77895C14.3754 4.64367 14.1683 4.61173 13.9988 4.70007L4.93088 9.42215L1.50357 8.23083C1.31675 8.16936 1.1897 7.99595 1.18741 7.79931C1.17838 7.60128 1.29561 7.41922 1.47964 7.34557L17.1544 1.0172C17.3182 0.947724 17.5071 0.97683 17.6424 1.0924C17.7769 1.20103 17.8388 1.37625 17.8022 1.54528L14.9481 15.559Z" fill="#00AEA5"/>
</svg>
