<svg width="23" height="24" viewBox="0 0 23 24" fill="none" xmlns="http://www.w3.org/2000/svg">
<path d="M21.4996 15.4998C22.1996 15.4998 22.6663 15.0331 22.6663 14.3331C22.6663 13.6331 22.1996 13.1664 21.4996 13.1664H17.9996V12.5831C17.9996 11.8831 17.533 11.4164 16.833 11.4164C16.133 11.4164 15.6663 11.8831 15.6663 12.5831V13.1664H12.1663C11.4663 13.1664 10.9996 13.6331 10.9996 14.3331C10.9996 15.0331 11.4663 15.4998 12.1663 15.4998H18.233C17.9997 16.5498 17.533 17.5998 16.833 18.4164C16.5996 18.0664 16.3663 17.7164 16.133 17.2498C15.783 16.6664 15.083 16.4331 14.6163 16.7831C14.033 17.1331 13.7996 17.8331 14.1496 18.2998C14.4996 18.8831 14.8496 19.4664 15.3163 20.0498C14.4996 20.6331 13.4496 21.0998 12.5163 21.3331C11.933 21.4498 11.4663 22.1498 11.583 22.7331C11.6996 23.3164 12.283 23.7831 12.983 23.6664C14.4996 23.3164 15.783 22.7331 16.9496 21.7998C18.1163 22.7331 19.5163 23.3164 21.033 23.6664C21.6163 23.7831 22.3163 23.4331 22.433 22.7331C22.5496 22.1498 22.1996 21.4498 21.4996 21.3331C20.4496 21.0998 19.5163 20.6331 18.6996 20.0498C19.7497 18.7664 20.4496 17.1331 20.7996 15.4998H21.4996ZM13.333 6.16642H14.4997C15.1996 6.16642 15.6663 6.63309 15.6663 7.33309V8.49975C15.6663 9.19975 16.133 9.66642 16.833 9.66642C17.533 9.66642 17.9996 9.19975 17.9996 8.49975V7.33309C17.9996 5.34975 16.483 3.83309 14.4997 3.83309H13.333C12.633 3.83309 12.1663 4.29975 12.1663 4.99975C12.1663 5.69975 12.7496 6.16642 13.333 6.16642ZM8.66632 16.6664H7.49965C6.79965 16.6664 6.33298 16.1998 6.33298 15.4998V14.3331C6.33298 13.6331 5.86632 13.1664 5.16632 13.1664C4.46632 13.1664 3.99965 13.6331 3.99965 14.3331V15.4998C3.99965 17.4831 5.51632 18.9998 7.49965 18.9998H8.66632C9.36632 18.9998 9.83298 18.5331 9.83298 17.8331C9.83298 17.1331 9.36632 16.6664 8.66632 16.6664ZM7.61632 11.0664C7.73298 11.6498 8.43298 12.1164 9.01632 11.8831C9.59965 11.7664 10.0663 11.0664 9.83298 10.4831L7.73298 2.31642C7.38298 0.91642 5.98298 -0.0169131 4.46632 0.333087C3.64965 0.683087 2.83298 1.38309 2.59965 2.31642L0.499648 10.4831C0.382982 11.0664 0.732982 11.7664 1.31632 11.8831C1.89965 11.9998 2.59965 11.6498 2.71632 11.0664L3.53298 8.49975H6.91632L7.61632 11.0664ZM4.11632 6.16642L4.93298 2.89975C4.93298 2.78309 5.16632 2.66642 5.28298 2.66642C5.39965 2.66642 5.39965 2.78309 5.51632 2.89975L6.33298 6.16642H4.11632Z" fill="#181433"/>
</svg>
