<svg width="44" height="60" viewBox="0 0 44 60" fill="none" xmlns="http://www.w3.org/2000/svg">
<path d="M22 7.03125C21.0395 7.03125 20.1467 7.32012 19.403 7.8157L5.34051 17.1907C4.08027 18.0309 3.25 19.4653 3.25 21.0938V52.9688C3.25 55.5575 5.34871 57.6562 7.9375 57.6562H10.3877C10.3266 57.3546 10.2944 57.0425 10.2944 56.7229V24.8479C10.2944 23.2195 11.1246 21.785 12.385 20.9448L22 14.5349V7.03125Z" fill="#D7FBF9"/>
<path d="M18.9698 45.7197L28.3448 36.3447C29.2602 35.4294 29.2602 33.9455 28.3448 33.0302C27.4294 32.115 25.9454 32.1149 25.0301 33.0302L15.6551 42.4052C14.7398 43.3206 14.7398 44.8045 15.6551 45.7197C16.5705 46.635 18.0544 46.6351 18.9698 45.7197Z" fill="#40C8FF"/>
<path d="M17.3125 37.0312C18.6069 37.0312 19.6562 35.9819 19.6562 34.6875C19.6562 33.3931 18.6069 32.3438 17.3125 32.3438C16.0181 32.3438 14.9688 33.3931 14.9688 34.6875C14.9688 35.9819 16.0181 37.0312 17.3125 37.0312Z" fill="#40C8FF"/>
<path d="M26.6875 46.4062C27.9819 46.4062 29.0312 45.3569 29.0312 44.0625C29.0312 42.7681 27.9819 41.7188 26.6875 41.7188C25.3931 41.7188 24.3438 42.7681 24.3438 44.0625C24.3438 45.3569 25.3931 46.4062 26.6875 46.4062Z" fill="#40C8FF"/>
<path d="M19.6562 4.83L4.04043 15.2406C2.07789 16.5491 0.90625 18.7371 0.90625 21.0938V52.9688C0.90625 56.8458 4.06047 60 7.9375 60H36.0625C39.9395 60 43.0938 56.8458 43.0938 52.9688V21.0938C43.0938 18.7371 41.9221 16.549 39.9595 15.2406L32.6751 10.3843C31.5984 9.66633 30.143 9.9573 29.425 11.0344C28.707 12.1114 28.998 13.5666 30.075 14.2846L37.3594 19.1408C38.0148 19.5778 38.4062 20.3079 38.4062 21.0938V52.9688C38.4062 54.2611 37.3548 55.3125 36.0625 55.3125H7.9375C6.64516 55.3125 5.59375 54.2611 5.59375 52.9688V21.0938C5.59375 20.308 5.98516 19.5779 6.64059 19.1408L19.6562 10.4638V18.75H17.3125C16.018 18.75 14.9688 19.7993 14.9688 21.0938C14.9688 22.3882 16.018 23.4375 17.3125 23.4375H26.6875C27.982 23.4375 29.0312 22.3882 29.0312 21.0938C29.0312 19.7993 27.982 18.75 26.6875 18.75H24.3438V6.09984C24.3438 6.09738 24.3438 6.09504 24.3438 6.09258V2.34375C24.3438 1.0493 23.2945 0 22 0C20.7055 0 19.6562 1.0493 19.6562 2.34375V4.83Z" fill="#00AEA5"/>
</svg>
